<svg width="67" height="73" viewBox="0 0 67 73" fill="none" xmlns="http://www.w3.org/2000/svg">
<path d="M22.4099 56.6605C22.4099 56.9457 22.0992 57.1738 21.7075 57.1738C21.2617 57.2166 20.951 56.9885 20.951 56.6605C20.951 56.3754 21.2617 56.1473 21.6534 56.1473C22.0587 56.1045 22.4099 56.3326 22.4099 56.6605ZM18.2089 56.0189C18.1143 56.3041 18.3845 56.632 18.7897 56.7176C19.1409 56.8602 19.5462 56.7176 19.6272 56.4324C19.7083 56.1473 19.4516 55.8193 19.0464 55.691C18.6952 55.5912 18.3034 55.7338 18.2089 56.0189ZM24.1794 55.7766C23.7877 55.8764 23.5175 56.1473 23.5581 56.4752C23.5986 56.7604 23.9498 56.9457 24.355 56.8459C24.7468 56.7461 25.0169 56.4752 24.9764 56.19C24.9359 55.9191 24.5712 55.7338 24.1794 55.7766ZM33.0677 1.14062C14.3321 1.14062 0 16.1541 0 35.9297C0 51.7416 9.42863 65.2723 22.8962 70.0344C24.6252 70.3623 25.2331 69.2359 25.2331 68.3092C25.2331 67.4252 25.1925 62.549 25.1925 59.5549C25.1925 59.5549 15.7369 61.6936 13.7512 55.3061C13.7512 55.3061 12.2113 51.157 9.99597 50.0877C9.99597 50.0877 6.90262 47.8492 10.2121 47.892C10.2121 47.892 13.5756 48.1772 15.4262 51.5705C18.3845 57.074 23.3419 55.4914 25.2736 54.5504C25.5843 52.2691 26.4623 50.6865 27.4349 49.7455C19.8839 48.8615 12.2653 47.7066 12.2653 33.9906C12.2653 30.0697 13.2919 28.1021 15.4532 25.5928C15.102 24.666 13.9538 20.8449 15.8044 15.9117C18.6276 14.985 25.125 19.7613 25.125 19.7613C27.8266 18.9629 30.7308 18.5494 33.6081 18.5494C36.4853 18.5494 39.3895 18.9629 42.0911 19.7613C42.0911 19.7613 48.5885 14.9707 51.4117 15.9117C53.2623 20.8592 52.1141 24.666 51.7629 25.5928C53.9242 28.1164 55.248 30.084 55.248 33.9906C55.248 47.7494 47.2917 48.8473 39.7407 49.7455C40.9835 50.8719 42.0371 53.0105 42.0371 56.3611C42.0371 61.166 41.9966 67.1115 41.9966 68.2807C41.9966 69.2074 42.6179 70.3338 44.3335 70.0059C57.8415 65.2723 67 51.7416 67 35.9297C67 16.1541 51.8034 1.14062 33.0677 1.14062ZM13.1298 50.3158C12.9542 50.4584 12.9948 50.7863 13.2244 51.0572C13.4405 51.2854 13.7512 51.3852 13.9268 51.1998C14.1024 51.0572 14.0619 50.7293 13.8323 50.4584C13.6161 50.2303 13.3054 50.1305 13.1298 50.3158ZM11.671 49.1609C11.5764 49.3463 11.7115 49.5744 11.9817 49.717C12.1978 49.8596 12.4679 49.8168 12.5625 49.6172C12.6571 49.4318 12.522 49.2037 12.2518 49.0611C11.9817 48.9756 11.7655 49.0184 11.671 49.1609ZM16.0476 54.2367C15.8315 54.4221 15.9125 54.8498 16.2232 55.1207C16.5339 55.4486 16.9256 55.4914 17.1012 55.2633C17.2768 55.0779 17.1958 54.6502 16.9256 54.3793C16.6284 54.0514 16.2232 54.0086 16.0476 54.2367ZM14.5077 52.1408C14.2915 52.2834 14.2915 52.6541 14.5077 52.982C14.7238 53.31 15.0885 53.4525 15.2641 53.31C15.4802 53.1246 15.4802 52.7539 15.2641 52.426C15.075 52.098 14.7238 51.9555 14.5077 52.1408Z" fill="black"/>
</svg>
