<svg width="139" height="106" viewBox="0 0 139 106" fill="none" xmlns="http://www.w3.org/2000/svg">
<g clip-path="url(#clip0_105_223)">
<path d="M139 56.9148V101.445C138.999 102.653 138.519 103.81 137.665 104.664C136.812 105.518 135.656 105.999 134.449 106H100.323L100.64 105.599L138.599 57.4247L139 56.9148Z" fill="#F2F2F2"/>
<path d="M54.3187 41.2292H15.1322C14.8111 41.2292 14.5032 41.3569 14.2761 41.5841C14.0491 41.8114 13.9215 42.1196 13.9215 42.441C13.9215 42.7623 14.0491 43.0706 14.2761 43.2978C14.5032 43.5251 14.8111 43.6527 15.1322 43.6527H54.3187C54.6398 43.6527 54.9478 43.5251 55.1748 43.2978C55.4018 43.0706 55.5294 42.7623 55.5294 42.441C55.5294 42.1196 55.4018 41.8114 55.1748 41.5841C54.9478 41.3569 54.6398 41.2292 54.3187 41.2292Z" fill="#E6E6E6"/>
<path d="M27.2821 34.4346H15.1322C14.8111 34.4346 14.5032 34.5623 14.2761 34.7896C14.0491 35.0168 13.9215 35.325 13.9215 35.6464C13.9215 35.9678 14.0491 36.276 14.2761 36.5033C14.5032 36.7305 14.8111 36.8582 15.1322 36.8582H27.2821C27.6032 36.8582 27.9111 36.7305 28.1382 36.5033C28.3652 36.276 28.4928 35.9678 28.4928 35.6464C28.4928 35.325 28.3652 35.0168 28.1382 34.7896C27.9111 34.5623 27.6031 34.4346 27.2821 34.4346Z" fill="#E6E6E6"/>
<path d="M134.449 0H4.5511C3.34452 0.00145413 2.18777 0.481842 1.33459 1.33579C0.481409 2.18974 0.00145282 3.34752 0 4.55519V101.445C0.00145282 102.652 0.481409 103.81 1.33459 104.664C2.18777 105.518 3.34452 105.999 4.5511 106H134.449C135.655 105.999 136.812 105.518 137.665 104.664C138.519 103.81 138.999 102.652 139 101.445V4.55519C138.999 3.34752 138.519 2.18974 137.665 1.33579C136.812 0.481842 135.655 0.00145413 134.449 0ZM138.599 101.445C138.599 101.99 138.492 102.53 138.283 103.034C138.074 103.538 137.769 103.996 137.383 104.382C136.998 104.768 136.541 105.074 136.037 105.282C135.534 105.491 134.994 105.598 134.449 105.598H4.5511C3.45046 105.598 2.39491 105.161 1.61665 104.382C0.83838 103.603 0.401154 102.546 0.401154 101.445V31.6546C0.401154 23.3657 3.69092 15.4164 9.54673 9.55532C15.4026 3.69424 23.3447 0.401515 31.6261 0.401515H134.449C134.994 0.401515 135.534 0.508954 136.037 0.717695C136.541 0.926437 136.998 1.2324 137.383 1.6181C137.769 2.0038 138.074 2.4617 138.283 2.96565C138.492 3.46959 138.599 4.00972 138.599 4.55519V101.445Z" fill="#E6E6E6"/>
<path d="M126.342 17.5198H12.6685C12.6153 17.5198 12.5643 17.4987 12.5266 17.461C12.489 17.4234 12.4679 17.3723 12.4679 17.319C12.4679 17.2658 12.489 17.2147 12.5266 17.1771C12.5643 17.1394 12.6153 17.1183 12.6685 17.1183H126.342C126.395 17.1183 126.446 17.1394 126.484 17.1771C126.521 17.2147 126.542 17.2658 126.542 17.319C126.542 17.3723 126.521 17.4234 126.484 17.461C126.446 17.4987 126.395 17.5198 126.342 17.5198Z" fill="#E6E6E6"/>
<path d="M18.3557 11.493C19.2925 11.493 20.052 10.7159 20.052 9.75741C20.052 8.79889 19.2925 8.02185 18.3557 8.02185C17.419 8.02185 16.6595 8.79889 16.6595 9.75741C16.6595 10.7159 17.419 11.493 18.3557 11.493Z" fill="#E6E6E6"/>
<path d="M24.2154 11.493C25.1522 11.493 25.9116 10.7159 25.9116 9.75741C25.9116 8.79889 25.1522 8.02185 24.2154 8.02185C23.2786 8.02185 22.5192 8.79889 22.5192 9.75741C22.5192 10.7159 23.2786 11.493 24.2154 11.493Z" fill="#E6E6E6"/>
<path d="M30.075 11.493C31.0118 11.493 31.7712 10.7159 31.7712 9.75741C31.7712 8.79889 31.0118 8.02185 30.075 8.02185C29.1382 8.02185 28.3788 8.79889 28.3788 9.75741C28.3788 10.7159 29.1382 11.493 30.075 11.493Z" fill="#E6E6E6"/>
<path d="M36.7565 11.1291C36.7298 11.1292 36.7033 11.1238 36.6787 11.1135C36.6541 11.1031 36.6318 11.0879 36.6131 11.0687L35.4686 9.89773C35.4319 9.86023 35.4114 9.80984 35.4114 9.75736C35.4114 9.70488 35.4319 9.65448 35.4686 9.61698L36.6131 8.44606C36.6314 8.42692 36.6534 8.4116 36.6777 8.401C36.702 8.3904 36.7282 8.38473 36.7547 8.3843C36.7812 8.38388 36.8075 8.38872 36.8321 8.39854C36.8567 8.40836 36.8792 8.42297 36.8981 8.44152C36.917 8.46007 36.9321 8.48219 36.9425 8.50661C36.9528 8.53103 36.9583 8.55727 36.9584 8.5838C36.9586 8.61032 36.9535 8.63662 36.9434 8.66117C36.9334 8.68572 36.9186 8.70802 36.8999 8.72681L35.8926 9.75736L36.8999 10.788C36.9275 10.8163 36.9461 10.852 36.9535 10.8908C36.9609 10.9297 36.9567 10.9698 36.9414 11.0062C36.926 11.0426 36.9003 11.0737 36.8675 11.0956C36.8346 11.1175 36.796 11.1291 36.7565 11.1291Z" fill="#E6E6E6"/>
<path d="M38.6797 11.1291C38.6402 11.1291 38.6016 11.1175 38.5687 11.0956C38.5358 11.0737 38.5101 11.0427 38.4948 11.0062C38.4795 10.9698 38.4753 10.9297 38.4827 10.8909C38.49 10.852 38.5087 10.8163 38.5363 10.788L39.5435 9.75736L38.5363 8.72681C38.4997 8.68863 38.4797 8.63754 38.4805 8.58465C38.4813 8.53175 38.503 8.48132 38.5408 8.44432C38.5786 8.40733 38.6294 8.38676 38.6823 8.38709C38.7352 8.38742 38.7857 8.40861 38.8231 8.44607L39.9675 9.61699C40.0042 9.65449 40.0247 9.70488 40.0247 9.75736C40.0247 9.80984 40.0042 9.86024 39.9675 9.89774L38.8231 11.0688C38.8044 11.0879 38.7821 11.1031 38.7575 11.1135C38.7329 11.1239 38.7064 11.1292 38.6797 11.1291Z" fill="#E6E6E6"/>
<path d="M116.205 8.22278H114.077C114.019 8.22276 113.962 8.23412 113.909 8.25621C113.855 8.2783 113.807 8.31068 113.766 8.35151C113.725 8.39234 113.693 8.44082 113.671 8.49417C113.649 8.54752 113.637 8.60469 113.637 8.66244V10.7945C113.637 10.8522 113.649 10.9094 113.671 10.9628C113.693 11.0161 113.725 11.0646 113.766 11.1054C113.807 11.1462 113.855 11.1786 113.909 11.2007C113.962 11.2228 114.019 11.2342 114.077 11.2341H116.205C116.322 11.2343 116.434 11.188 116.516 11.1056C116.599 11.0232 116.646 10.9113 116.646 10.7945V8.66244C116.646 8.54561 116.599 8.43372 116.516 8.35131C116.434 8.26889 116.322 8.22267 116.205 8.22278Z" fill="#E6E6E6"/>
<path d="M110.99 8.22278H108.862C108.804 8.22276 108.747 8.23412 108.694 8.25621C108.64 8.2783 108.592 8.31068 108.551 8.35151C108.51 8.39234 108.478 8.44082 108.456 8.49417C108.434 8.54752 108.422 8.60469 108.422 8.66244V10.7945C108.422 10.8522 108.434 10.9094 108.456 10.9628C108.478 11.0161 108.51 11.0646 108.551 11.1054C108.592 11.1462 108.64 11.1786 108.694 11.2007C108.747 11.2228 108.804 11.2342 108.862 11.2341H110.99C111.106 11.2343 111.218 11.188 111.301 11.1056C111.384 11.0232 111.431 10.9113 111.431 10.7945V8.66244C111.431 8.54561 111.384 8.43372 111.301 8.35131C111.218 8.26889 111.106 8.22267 110.99 8.22278Z" fill="#E6E6E6"/>
<path d="M121.119 8.32318H118.991C118.933 8.32316 118.876 8.33452 118.823 8.35661C118.769 8.3787 118.721 8.41108 118.68 8.45191C118.639 8.49274 118.607 8.54122 118.585 8.59457C118.563 8.64792 118.551 8.7051 118.552 8.76284V10.8949C118.551 10.9526 118.563 11.0098 118.585 11.0632C118.607 11.1165 118.639 11.165 118.68 11.2058C118.721 11.2466 118.769 11.279 118.823 11.3011C118.876 11.3232 118.933 11.3346 118.991 11.3345H121.119C121.236 11.3347 121.348 11.2884 121.43 11.206C121.513 11.1236 121.56 11.0117 121.56 10.8949V8.76284C121.56 8.64601 121.513 8.53413 121.43 8.45171C121.348 8.36929 121.236 8.32307 121.119 8.32318Z" fill="#E6E6E6"/>
<path d="M78.0106 9.13422H60.9996C60.8576 9.13422 60.7214 9.19069 60.621 9.29121C60.5205 9.39174 60.4641 9.52808 60.4641 9.67024C60.4641 9.8124 60.5205 9.94874 60.621 10.0493C60.7214 10.1498 60.8576 10.2063 60.9996 10.2063H78.0106C78.1526 10.2063 78.2889 10.1498 78.3893 10.0493C78.4897 9.94874 78.5461 9.8124 78.5461 9.67024C78.5461 9.52808 78.4897 9.39174 78.3893 9.29121C78.2889 9.19069 78.1526 9.13422 78.0106 9.13422Z" fill="#E6E6E6"/>
<path d="M32.4148 82.4003L22.2421 82.0784C20.8312 82.0338 19.2446 82.036 18.2383 82.7658C17.0961 83.5941 17.2691 85.0616 18.2174 86.0134C19.1657 86.9652 20.6798 87.509 22.166 87.9511C30.0615 90.2999 38.7996 90.7768 47.2841 90.2453C55.7686 89.7138 64.0784 88.2113 72.3473 86.7139C73.1315 86.5719 74.0204 86.3676 74.3402 85.8213C74.6496 85.2929 74.2448 84.6556 73.616 84.3141C72.9871 83.9725 72.19 83.8574 71.421 83.7558C57.4914 81.9236 43.4112 81.5216 29.4 82.5561" fill="#3EA8FF"/>
<path d="M50.6918 74.5693V72.1602C48.9452 72.185 42.6947 72.1424 41.0641 72.1603C40.9428 80.5802 40.199 78.9309 47.091 78.9637C47.4078 78.9649 47.7112 79.0915 47.935 79.316C48.1587 79.5405 48.2845 79.8445 48.2849 80.1615V80.1977C48.2849 80.5152 48.1589 80.8198 47.9345 81.0444C47.7101 81.2689 47.4058 81.3951 47.0885 81.3951H41.0641V83.8042H50.6918C50.7053 83.7961 50.6821 81.478 50.6919 81.3951C51.0989 74.4157 50.2935 76.9259 44.4407 76.646C44.1788 76.6326 43.9321 76.519 43.7516 76.3286C43.5712 76.1382 43.4707 75.8857 43.471 75.6233V75.5932C43.471 75.3216 43.5788 75.0612 43.7706 74.8692C43.9625 74.6772 44.2226 74.5693 44.4939 74.5693H50.6918Z" fill="#1B1B21"/>
<path d="M62.5259 74.5693V72.1602C60.7793 72.185 54.5288 72.1424 52.8982 72.1603C52.7758 80.6534 52.0201 78.9015 59.1065 78.9649C59.376 78.9676 59.6335 79.0767 59.8231 79.2684C60.0127 79.4601 60.1191 79.7189 60.1191 79.9887C60.119 80.1152 60.119 80.2447 60.119 80.3716C60.119 80.506 60.0926 80.6391 60.0411 80.7633C59.9897 80.8875 59.9144 81.0003 59.8194 81.0954C59.7244 81.1904 59.6116 81.2658 59.4875 81.3172C59.3634 81.3687 59.2304 81.3951 59.0961 81.3951H52.8982V83.8042H62.5259C62.5394 83.7961 62.5162 81.478 62.526 81.3951C62.933 74.4157 62.1276 76.9259 56.2748 76.646C56.0129 76.6326 55.7662 76.519 55.5858 76.3286C55.4053 76.1382 55.3048 75.8857 55.3051 75.6232V75.5932C55.3051 75.3216 55.4129 75.0612 55.6047 74.8692C55.7966 74.6772 56.0567 74.5693 56.328 74.5693H62.5259Z" fill="#1B1B21"/>
<path d="M38.2561 74.5694V72.1603H28.6284C28.6216 74.309 28.6333 79.9962 28.6284 82.1981C26.7412 85.3959 37.4623 83.182 38.2567 83.8051C38.2561 83.8042 38.2561 81.3951 38.2561 81.3951C30.9308 81.3568 30.7467 82.7293 30.9824 76.0891C30.9966 75.6814 31.1683 75.2951 31.4614 75.0116C31.7545 74.7281 32.1461 74.5695 32.5537 74.5692C34.6714 74.5694 38.2561 74.5694 38.2561 74.5694Z" fill="#1B1B21"/>
<path d="M57.2864 53.6249L47.1137 53.3566C45.7028 53.3194 44.1162 53.3213 43.1099 53.9296C41.9677 54.6201 42.1406 55.8433 43.0889 56.6367C44.0372 57.4301 45.5514 57.8834 47.0376 58.2519C54.9331 60.2099 63.6712 60.6074 72.1557 60.1644C80.6401 59.7213 88.95 58.4689 97.2189 57.2207C98.0031 57.1023 98.892 56.932 99.2118 56.4766C99.5212 56.0361 99.1163 55.5049 98.4875 55.2202C97.8587 54.9355 97.0615 54.8396 96.2926 54.7548C82.3394 53.227 68.2815 52.8924 54.2715 53.7547" fill="#3EA8FF"/>
<path d="M55.5056 43.0504C55.3417 46.7698 56.7075 47.9404 51.9953 47.4667C51.677 45.2479 53.2915 42.1687 49.5887 42.9505C50.3304 44.5601 47.5222 56.7714 51.9948 54.5933C52.246 50.9245 50.5903 49.3154 55.5058 49.8766C55.8999 52.1446 54.0601 55.482 57.9124 54.694C57.1708 53.0837 59.979 40.8734 55.5056 43.0504Z" fill="#1B1B21"/>
<path d="M80.1767 43.0505C80.507 43.2546 77.1499 46.8094 77.0774 47.1007C76.9767 46.8521 73.7725 43.3741 74.1594 43.0506C69.7006 40.8453 72.4795 53.1276 71.7516 54.6949C71.7524 54.6944 74.1594 54.6944 74.1594 54.6944V47.066C77.5425 51.6332 76.9143 50.8646 80.1767 46.8417L80.1767 54.6944C84.6353 56.9005 81.8567 44.6166 82.5844 43.0499C82.5836 43.0505 80.1767 43.0505 80.1767 43.0505Z" fill="#1B1B21"/>
<path d="M69.5461 43.0505H59.9184C59.3527 46.4276 61.2232 45.295 63.5291 45.4595L63.5288 54.6944H65.9357V45.4596C68.231 45.3033 70.119 46.4127 69.5461 43.0505Z" fill="#1B1B21"/>
<path d="M86.9963 52.2853C86.4404 49.2322 86.4404 46.1036 86.9963 43.0505H84.5894C84.6033 44.5768 84.5851 50.7359 84.5865 53.5524C84.5864 53.8564 84.7068 54.148 84.9215 54.3631C85.1361 54.5781 85.4273 54.6991 85.731 54.6993C88.1559 54.7025 92.7853 54.6846 94.2171 54.6945L94.2171 52.2853H86.9963Z" fill="#1B1B21"/>
<path d="M25.5097 52.6868H15.7267C15.2479 52.6868 14.7888 52.8772 14.4502 53.216C14.1117 53.5549 13.9215 54.0144 13.9215 54.4936C13.9215 54.9728 14.1117 55.4324 14.4502 55.7713C14.7888 56.1101 15.2479 56.3005 15.7267 56.3005H25.5097C25.9885 56.3005 26.4476 56.1101 26.7862 55.7713C27.1247 55.4324 27.3149 54.9728 27.3149 54.4936C27.3149 54.0144 27.1247 53.5549 26.7862 53.216C26.4476 52.8772 25.9885 52.6868 25.5097 52.6868Z" fill="#E6E6E6"/>
</g>
<defs>
<clipPath id="clip0_105_223">
<rect width="139" height="106" fill="white"/>
</clipPath>
</defs>
</svg>
