<svg width="142" height="91" viewBox="0 0 142 91" fill="none" xmlns="http://www.w3.org/2000/svg">
<path d="M134.655 91C110.397 80.6852 88.4508 81.0773 67.7793 87.373C35.9288 81.7917 14.1189 82.6553 0.129028 91V65.0925H134.655V91Z" fill="#CBCBCB"/>
<path d="M134.655 83.8754C112.307 73.7152 89.9853 73.0592 67.3275 83.8754C44.1204 77.1711 21.6857 77.2412 0 83.8754V5.11672C23.0563 -1.78786 45.4841 -1.62194 67.3275 5.11672C90.4012 -1.59867 112.864 -1.81165 134.655 5.11672V83.8754Z" fill="#E5E5E5"/>
<path d="M6.05632 14.8906L5.30457 12.9601C5.59921 12.8446 12.6396 10.1137 22.972 8.72065C32.5247 7.43249 46.7569 7.12497 60.3121 12.9732L59.4961 14.8774C46.3942 9.22477 32.5828 9.52242 23.3033 10.7672C13.2031 12.1224 6.12661 14.8631 6.05632 14.8906Z" fill="white"/>
<path d="M6.05632 22.1447L5.30457 20.2142C5.59921 20.0987 12.6396 17.3678 22.972 15.9747C32.5247 14.6867 46.7569 14.3792 60.3121 20.2273L59.4961 22.1314C46.3942 16.4788 32.5828 16.7762 23.3033 18.0213C13.2031 19.3765 6.12661 22.1171 6.05632 22.1447Z" fill="white"/>
<path d="M6.05632 29.3988L5.30457 27.4683C5.59921 27.3528 12.6396 24.6219 22.972 23.2288C32.5247 21.9407 46.7569 21.6331 60.3121 27.4814L59.4961 29.3855C46.3942 23.7329 32.5828 24.0303 23.3033 25.2754C13.2031 26.6306 6.12661 29.3712 6.05632 29.3988Z" fill="white"/>
<path d="M6.05632 36.6529L5.30457 34.7223C5.59921 34.6068 12.6396 31.8759 22.972 30.4829C32.5247 29.195 46.7569 28.8871 60.3121 34.7355L59.4961 36.6396C46.3942 30.987 32.5828 31.2845 23.3033 32.5294C13.2031 33.8846 6.12661 36.6253 6.05632 36.6529Z" fill="white"/>
<path d="M6.05632 43.907L5.30457 41.9765C5.59921 41.861 12.6396 39.13 22.972 37.737C32.5247 36.4489 46.7569 36.1413 60.3121 41.9896L59.4961 43.8937C46.3942 38.241 32.5828 38.5387 23.3033 39.7836C13.2031 41.1388 6.12661 43.8794 6.05632 43.907Z" fill="white"/>
<path d="M6.05632 51.161L5.30457 49.2305C5.59921 49.115 12.6396 46.3841 22.972 44.9911C32.5247 43.7031 46.7569 43.3954 60.3121 49.2436L59.4961 51.1477C46.3942 45.495 32.5828 45.7928 23.3033 47.0376C13.2031 48.3928 6.12661 51.1335 6.05632 51.161Z" fill="white"/>
<path d="M73.4484 66.4464L72.6967 64.5159C72.9913 64.4004 80.0317 61.6695 90.3641 60.2765C99.9168 58.9885 114.149 58.6808 127.704 64.529L126.888 66.4331C113.786 60.7804 99.9749 61.0782 90.6954 62.323C80.5952 63.6782 73.5187 66.4189 73.4484 66.4464Z" fill="#3EA8FF"/>
<path d="M72.8143 52.5245V12.9043L73.5392 12.6771C91.9089 6.91964 110.19 6.92079 127.873 12.6805L128.587 12.913V52.4718L127.19 51.9425C108.787 44.9738 90.9734 44.9696 74.2428 51.9302L72.8143 52.5245ZM100.072 44.6356C108.718 44.6356 117.534 46.2527 126.521 49.4868V14.4227C109.708 9.10268 92.3407 9.10559 74.88 14.4312V49.4388C82.9028 46.2673 91.4485 44.638 100.072 44.6356Z" fill="white"/>
<path d="M126.564 65.4199L126.835 58.8261L136.116 40.3102C136.378 39.7838 136.805 39.3582 137.331 39.0986C137.653 38.9374 138.004 38.8422 138.363 38.8186C138.723 38.7951 139.083 38.8437 139.423 38.9615C139.818 39.0979 140.175 39.3239 140.468 39.6217C140.761 39.9195 140.981 40.2812 141.112 40.6786C141.168 40.8502 141.207 41.0267 141.23 41.2059C141.296 41.7376 141.202 42.2769 140.96 42.7548L131.666 61.2958L126.564 65.4199Z" fill="#3EA8FF"/>
<path d="M138.487 38.9429L128.412 59.0419L127.644 58.6542L137.388 39.2149C137.73 39.0433 138.105 38.9504 138.487 38.9429Z" fill="#3F3D56"/>
<path d="M141.101 41.2223L131.41 60.5552L130.642 60.1676L140.696 40.1102C140.82 40.2995 140.919 40.5042 140.989 40.7192C141.043 40.8829 141.08 41.0514 141.101 41.2223Z" fill="#3F3D56"/>
<path d="M140.137 39.4971L129.95 59.8183L129.182 59.4306L139.381 39.084C139.49 39.1213 139.596 39.1661 139.698 39.218C139.853 39.2963 140 39.3898 140.137 39.4971Z" fill="#3F3D56"/>
<path d="M127.729 64.3119L126.704 65.1402L126.79 62.9564C127.142 63.0789 127.523 63.6105 127.729 64.3119Z" fill="#3F3D56"/>
<path d="M67.5856 5.1167H67.0692V83.6262H67.5856V5.1167Z" fill="#CBCBCB"/>
</svg>
