<svg width="235" height="194" viewBox="0 0 235 194" fill="none" xmlns="http://www.w3.org/2000/svg">
<path d="M82.205 144.391C114.411 144.391 140.612 118.197 140.612 85.9998C140.612 53.8026 114.411 27.6083 82.205 27.6083C78.8002 27.6079 75.4017 27.9023 72.0477 28.4882C72.0059 28.4954 71.9659 28.5108 71.93 28.5335C71.8942 28.5562 71.8631 28.5857 71.8387 28.6204C71.8143 28.6551 71.7969 28.6943 71.7877 28.7357C71.7784 28.7771 71.7774 28.82 71.7847 28.8617C71.7921 28.9035 71.8076 28.9435 71.8304 28.9793C71.8532 29.0151 71.8828 29.046 71.9176 29.0703C71.9523 29.0947 71.9916 29.1119 72.033 29.1211C72.0744 29.1302 72.1173 29.1311 72.1591 29.1236C75.4763 28.5443 78.8375 28.2531 82.205 28.2535C114.055 28.2535 139.967 54.1583 139.967 85.9998C139.967 117.841 114.055 143.746 82.205 143.746C50.3552 143.746 24.4434 117.841 24.4434 85.9998C24.4292 71.6078 29.8046 57.7318 39.5115 47.1037C39.5686 47.0404 39.5983 46.957 39.5941 46.8719C39.59 46.7867 39.5522 46.7067 39.4892 46.6493C39.4262 46.5918 39.343 46.5616 39.2578 46.5653C39.1726 46.569 39.0924 46.6063 39.0346 46.6689C29.2192 57.4159 23.7837 71.4469 23.7981 85.9998C23.7981 118.197 49.9993 144.391 82.205 144.391Z" fill="#E4E4E4"/>
<path d="M56.4518 47.6346C50.0697 47.6346 44.8959 42.4622 44.8959 36.0818C44.8959 29.7013 50.0697 24.5289 56.4518 24.5289C62.8339 24.5289 68.0077 29.7013 68.0077 36.0818C68.0077 42.4622 62.8339 47.6346 56.4518 47.6346Z" fill="#3EA8FF"/>
<path d="M83.7075 76.9382L101.528 27.3761L101.076 27.2137L104.353 18.0979L104.805 18.2604L110.277 3.04333C110.481 2.47499 110.795 1.95244 111.202 1.50554C111.608 1.05864 112.098 0.696124 112.645 0.438697C113.191 0.181271 113.783 0.0339727 114.386 0.0052163C114.99 -0.0235401 115.593 0.0668075 116.162 0.271099L148.377 11.8479C148.945 12.0521 149.468 12.3664 149.915 12.7726C150.362 13.1788 150.724 13.6691 150.982 14.2154C151.239 14.7617 151.387 15.3534 151.416 15.9567C151.444 16.56 151.354 17.163 151.15 17.7313L147.335 28.3416L148.049 28.6165L145.613 34.9386L145.042 34.7185L144.536 36.1248L145.145 36.359L142.709 42.6812L142.243 42.5018L124.581 91.6262C124.377 92.1952 124.063 92.7185 123.657 93.1661C123.251 93.6136 122.761 93.9766 122.214 94.2341C121.667 94.4917 121.075 94.6388 120.471 94.667C119.867 94.6953 119.264 94.604 118.695 94.3986L86.4806 82.8218C85.3334 82.4081 84.3971 81.5562 83.8773 80.4532C83.3574 79.3503 83.2963 78.0861 83.7075 76.9382Z" fill="#3F3D56"/>
<path d="M120.39 92.7651C120.844 92.7641 121.286 92.6234 121.657 92.3623C122.028 92.1011 122.309 91.7322 122.463 91.3055L149.312 16.6307C149.51 16.0807 149.481 15.4747 149.232 14.946C148.983 14.4173 148.534 14.0093 147.984 13.8115L141.129 11.3484L141.139 11.5881C141.157 12.0043 141.072 12.4184 140.892 12.794C140.712 13.1696 140.442 13.4951 140.106 13.7418C139.77 13.9886 139.379 14.149 138.967 14.209C138.554 14.269 138.134 14.2267 137.742 14.0858L122.53 8.6193C122.163 8.45111 121.84 8.19887 121.589 7.88299C121.337 7.56711 121.163 7.19645 121.082 6.80102C121.001 6.41218 121.013 6.00974 121.117 5.62653C121.222 5.24332 121.415 4.89021 121.682 4.59602L121.843 4.41754L114.762 1.87309C114.212 1.67621 113.606 1.7055 113.078 1.95455C112.549 2.2036 112.141 2.65207 111.942 3.20163L86.3258 74.4476C85.803 75.9071 85.8806 77.5144 86.5416 78.9167C87.2026 80.3191 88.393 81.4021 89.8517 81.9282L119.643 92.634C119.882 92.7205 120.135 92.7648 120.39 92.7651Z" fill="white"/>
<path d="M123.015 39.7997C118.203 39.7997 114.302 35.9 114.302 31.0894C114.302 26.2788 118.203 22.379 123.015 22.379C127.827 22.379 131.727 26.2788 131.727 31.0894C131.727 35.9 127.827 39.7997 123.015 39.7997Z" fill="#3EA8FF"/>
<path d="M101.425 43.7563L131.597 54.5991C131.691 54.6332 131.791 54.6484 131.891 54.6438C131.992 54.6392 132.09 54.6149 132.18 54.5723C132.271 54.5297 132.353 54.4696 132.42 54.3955C132.488 54.3214 132.54 54.2347 132.574 54.1404C132.608 54.0461 132.622 53.946 132.618 53.846C132.613 53.7459 132.588 53.6477 132.545 53.5571C132.503 53.4665 132.442 53.3853 132.368 53.318C132.294 53.2507 132.207 53.1988 132.113 53.1651L101.94 42.3223C101.75 42.2546 101.541 42.2649 101.359 42.3512C101.176 42.4374 101.035 42.5924 100.967 42.7823C100.899 42.9721 100.909 43.1812 100.995 43.3638C101.08 43.5464 101.235 43.6876 101.425 43.7563Z" fill="#E6E6E6"/>
<path d="M110.385 50.6311L120.31 54.1976C120.404 54.2316 120.504 54.2468 120.604 54.2422C120.704 54.2375 120.802 54.2132 120.893 54.1706C120.984 54.128 121.065 54.0679 121.133 53.9938C121.2 53.9197 121.252 53.8331 121.286 53.7388C121.32 53.6445 121.335 53.5445 121.33 53.4444C121.325 53.3443 121.301 53.2462 121.258 53.1556C121.215 53.065 121.155 52.9838 121.081 52.9165C121.006 52.8492 120.92 52.7972 120.825 52.7635L110.901 49.197C110.71 49.1287 110.501 49.1386 110.318 49.2248C110.135 49.3109 109.994 49.4661 109.926 49.6563C109.857 49.8465 109.867 50.056 109.953 50.2388C110.04 50.4216 110.195 50.5627 110.385 50.6311Z" fill="#E6E6E6"/>
<path d="M108.024 57.1963L117.949 60.7628C118.043 60.7966 118.143 60.8116 118.243 60.8068C118.343 60.802 118.441 60.7776 118.531 60.735C118.622 60.6923 118.703 60.6323 118.771 60.5582C118.838 60.4842 118.89 60.3976 118.924 60.3035C118.958 60.2093 118.973 60.1094 118.968 60.0095C118.963 59.9095 118.939 59.8115 118.896 59.721C118.853 59.6304 118.793 59.5492 118.719 59.4819C118.645 59.4146 118.559 59.3625 118.464 59.3287L108.54 55.7622C108.35 55.6938 108.14 55.7038 107.957 55.79C107.774 55.8761 107.633 56.0313 107.565 56.2215C107.497 56.4117 107.507 56.6212 107.593 56.804C107.679 56.9868 107.834 57.1279 108.024 57.1963Z" fill="#E6E6E6"/>
<path d="M106.815 60.559L116.74 64.1254C116.834 64.1596 116.934 64.1748 117.034 64.1702C117.134 64.1656 117.233 64.1414 117.323 64.0988C117.414 64.0562 117.496 63.9961 117.563 63.922C117.63 63.8479 117.683 63.7612 117.717 63.6668C117.75 63.5725 117.765 63.4725 117.761 63.3724C117.756 63.2723 117.731 63.1741 117.688 63.0835C117.646 62.9929 117.585 62.9116 117.511 62.8443C117.437 62.7771 117.35 62.7251 117.255 62.6915L107.331 59.125C107.237 59.0909 107.137 59.0757 107.036 59.0803C106.936 59.0849 106.838 59.1092 106.747 59.1518C106.657 59.1944 106.575 59.2545 106.508 59.3286C106.44 59.4027 106.388 59.4894 106.354 59.5837C106.32 59.6779 106.305 59.778 106.31 59.8781C106.315 59.9782 106.34 60.0763 106.382 60.1669C106.425 60.2575 106.485 60.3388 106.56 60.406C106.634 60.4733 106.721 60.5253 106.815 60.559Z" fill="#E6E6E6"/>
<path d="M103.655 51.8674L124.712 59.4343C124.806 59.4684 124.906 59.4836 125.006 59.479C125.106 59.4744 125.204 59.4501 125.295 59.4075C125.386 59.3649 125.467 59.3048 125.535 59.2307C125.602 59.1566 125.654 59.0699 125.688 58.9756C125.722 58.8813 125.737 58.7813 125.732 58.6812C125.728 58.5811 125.703 58.483 125.66 58.3924C125.617 58.3018 125.557 58.2205 125.483 58.1532C125.409 58.086 125.322 58.034 125.227 58.0003L104.171 50.4334C104.077 50.3993 103.977 50.3841 103.876 50.3887C103.776 50.3933 103.678 50.4176 103.587 50.4602C103.497 50.5029 103.415 50.5629 103.348 50.637C103.28 50.7111 103.228 50.7978 103.194 50.8921C103.16 50.9864 103.145 51.0865 103.15 51.1866C103.155 51.2866 103.18 51.3848 103.222 51.4754C103.265 51.566 103.325 51.6472 103.4 51.7145C103.474 51.7818 103.561 51.8338 103.655 51.8674Z" fill="#E6E6E6"/>
<path d="M107.897 68.7221L111.5 70.017C111.823 70.133 112.18 70.1158 112.49 69.9693C112.801 69.8228 113.041 69.559 113.157 69.2357C113.273 68.9125 113.256 68.5564 113.11 68.2457C112.964 67.9349 112.7 67.695 112.377 67.5786L108.773 66.2836C108.45 66.1676 108.094 66.1848 107.783 66.3313C107.472 66.4778 107.232 66.7417 107.116 67.0649C107 67.3881 107.017 67.7442 107.163 68.055C107.31 68.3657 107.573 68.6057 107.897 68.7221Z" fill="#3EA8FF"/>
<path d="M29.8415 150.777C29.3834 149.03 28.2836 147.52 26.7612 146.547C26.6103 146.451 26.7676 146.222 26.9183 146.318C28.5006 147.333 29.642 148.907 30.1147 150.726C30.1596 150.899 29.8862 150.949 29.8415 150.777Z" fill="white"/>
<path d="M0.823616 107.458L10.1623 123.169L9.80732 123.356L12.9697 129.35L13.628 129.001L15.7061 132.495L15.1898 132.792L18.578 138.657L19.1653 138.318L49.637 189.587C50.4361 190.928 51.735 191.898 53.2487 192.284C54.7624 192.669 56.3671 192.438 57.7107 191.642L114.359 157.991C115.701 157.192 116.671 155.893 117.057 154.38C117.442 152.867 117.211 151.262 116.414 149.919L67.6012 67.7903C66.802 66.4486 65.5031 65.4787 63.9894 65.0934C62.4758 64.7081 60.871 64.939 59.5274 65.7353L2.87917 99.3862C1.53756 100.186 0.567764 101.484 0.182434 102.997C-0.202904 104.51 0.0276718 106.114 0.823616 107.458Z" fill="#3F3D56"/>
<path d="M55.6917 188.471L112.54 154.702C112.953 154.456 113.252 154.056 113.371 153.589C113.49 153.123 113.419 152.628 113.173 152.214L64.0358 69.5389C63.7894 69.1254 63.389 68.8265 62.9224 68.7078C62.4559 68.5891 61.9613 68.6602 61.5471 68.9056L4.69927 102.675C4.28566 102.921 3.98667 103.321 3.8679 103.788C3.74914 104.254 3.82027 104.749 4.06573 105.163L53.203 187.838C53.4494 188.252 53.8498 188.55 54.3164 188.669C54.7829 188.788 55.2776 188.717 55.6917 188.471Z" fill="white"/>
<path d="M32.3403 84.4834C32.0635 84.4834 31.8392 84.2591 31.8392 83.9824C31.8392 83.7057 32.0635 83.4814 32.3403 83.4814C32.6171 83.4814 32.8414 83.7057 32.8414 83.9824C32.8414 84.2591 32.6171 84.4834 32.3403 84.4834Z" fill="white"/>
<path d="M35.4417 143.707L82.8954 115.518C83.0442 115.431 83.1743 115.314 83.2781 115.176C83.3819 115.038 83.4575 114.881 83.5004 114.714C83.5434 114.547 83.5529 114.373 83.5283 114.202C83.5038 114.031 83.4457 113.866 83.3575 113.718C83.2693 113.569 83.1526 113.44 83.0142 113.337C82.8757 113.233 82.7182 113.158 82.5508 113.116C82.3833 113.074 82.2091 113.065 82.0382 113.09C81.8674 113.115 81.7031 113.174 81.555 113.263L34.1012 141.452C33.9524 141.539 33.8223 141.655 33.7185 141.793C33.6147 141.931 33.5392 142.089 33.4962 142.256C33.4533 142.423 33.4438 142.597 33.4683 142.768C33.4929 142.939 33.5509 143.104 33.6391 143.252C33.7274 143.4 33.8441 143.53 33.9825 143.633C34.1209 143.737 34.2784 143.811 34.4459 143.854C34.6133 143.896 34.7875 143.905 34.9584 143.88C35.1293 143.854 35.2935 143.796 35.4417 143.707Z" fill="#E6E6E6"/>
<path d="M54.3897 139.339L69.9985 130.067C70.1467 129.979 70.2761 129.863 70.3793 129.725C70.4825 129.587 70.5575 129.43 70.6 129.263C70.6426 129.096 70.6518 128.922 70.6272 128.752C70.6025 128.581 70.5445 128.417 70.4565 128.269C70.3685 128.121 70.2521 127.992 70.1141 127.888C69.9761 127.785 69.8191 127.71 69.6521 127.668C69.4851 127.625 69.3113 127.616 69.1408 127.641C68.9702 127.665 68.8062 127.723 68.658 127.811L53.0492 137.084C52.9011 137.172 52.7717 137.288 52.6685 137.426C52.5654 137.564 52.4904 137.721 52.4479 137.888C52.4054 138.055 52.3962 138.228 52.4208 138.399C52.4454 138.569 52.5034 138.733 52.5914 138.881C52.6794 139.029 52.7958 139.159 52.9338 139.262C53.0718 139.365 53.2288 139.44 53.3958 139.483C53.5627 139.525 53.7364 139.534 53.907 139.51C54.0775 139.485 54.2415 139.427 54.3897 139.339Z" fill="#E6E6E6"/>
<path d="M60.5266 149.665L76.1355 140.392C76.4345 140.215 76.6508 139.925 76.7366 139.588C76.8224 139.251 76.7707 138.894 76.593 138.595C76.4153 138.296 76.126 138.08 75.7888 137.994C75.4516 137.908 75.0941 137.959 74.795 138.137L59.1861 147.409C59.038 147.497 58.9086 147.613 58.8055 147.751C58.7023 147.889 58.6273 148.046 58.5848 148.213C58.5423 148.38 58.5331 148.554 58.5577 148.724C58.5823 148.895 58.6403 149.059 58.7284 149.207C58.8164 149.355 58.9327 149.484 59.0707 149.587C59.2087 149.691 59.3657 149.766 59.5327 149.808C59.6997 149.851 59.8734 149.86 60.0439 149.835C60.2145 149.811 60.3785 149.753 60.5266 149.665Z" fill="#E6E6E6"/>
<path d="M63.67 154.953L79.2788 145.681C79.4274 145.593 79.5572 145.477 79.6607 145.339C79.7643 145.201 79.8396 145.044 79.8824 144.877C79.9252 144.71 79.9345 144.536 79.91 144.365C79.8854 144.194 79.8274 144.03 79.7393 143.882C79.6511 143.734 79.5346 143.604 79.3963 143.501C79.258 143.398 79.1007 143.323 78.9335 143.28C78.7662 143.238 78.5922 143.229 78.4214 143.254C78.2507 143.279 78.0865 143.337 77.9384 143.426L62.3295 152.698C62.1807 152.786 62.0506 152.902 61.9467 153.04C61.8429 153.178 61.7673 153.335 61.7243 153.502C61.6814 153.669 61.6719 153.844 61.6964 154.015C61.721 154.185 61.779 154.35 61.8672 154.498C61.9555 154.647 62.0722 154.776 62.2106 154.88C62.3491 154.983 62.5066 155.058 62.6741 155.1C62.8416 155.142 63.0158 155.151 63.1867 155.126C63.3576 155.101 63.5218 155.042 63.67 154.953Z" fill="#E6E6E6"/>
<path d="M48.6611 149.629L81.7779 129.957C82.0755 129.779 82.2903 129.49 82.3753 129.153C82.4602 128.817 82.4084 128.46 82.2311 128.162C82.0538 127.864 81.7655 127.648 81.4293 127.562C81.0932 127.475 80.7365 127.526 80.4374 127.702L47.3207 147.374C47.1718 147.462 47.0417 147.578 46.9379 147.716C46.834 147.854 46.7584 148.011 46.7155 148.178C46.6725 148.346 46.6631 148.52 46.6876 148.691C46.7121 148.862 46.7701 149.026 46.8584 149.175C46.9466 149.323 47.0633 149.453 47.2018 149.556C47.3403 149.659 47.4978 149.734 47.6653 149.776C47.8327 149.819 48.0069 149.827 48.1778 149.802C48.3487 149.777 48.513 149.718 48.6611 149.629Z" fill="#E6E6E6"/>
<path d="M54.9731 174.771L60.6406 171.404C61.1486 171.101 61.5157 170.61 61.6612 170.037C61.8068 169.464 61.7188 168.857 61.4168 168.348C61.1148 167.84 60.6233 167.473 60.0504 167.326C59.4774 167.18 58.8699 167.267 58.3612 167.569L52.6937 170.936C52.185 171.238 51.8172 171.73 51.6712 172.303C51.5253 172.876 51.6131 173.484 51.9153 173.992C52.2176 174.501 52.7096 174.869 53.283 175.015C53.8564 175.161 54.4644 175.073 54.9731 174.771Z" fill="#3EA8FF"/>
<path d="M44.3991 120.108C37.9833 120.108 32.7823 114.909 32.7823 108.494C32.7823 102.08 37.9833 96.8806 44.3991 96.8806C50.815 96.8806 56.016 102.08 56.016 108.494C56.016 114.909 50.815 120.108 44.3991 120.108Z" fill="#3EA8FF"/>
<path d="M234.862 155.689H77.6534V64.6985C77.6542 64.0167 77.9255 63.3631 78.4077 62.8811C78.8899 62.399 79.5437 62.1278 80.2256 62.1271H232.29C232.972 62.1278 233.625 62.399 234.108 62.8811C234.59 63.3631 234.861 64.0167 234.862 64.6985V155.689Z" fill="#CACACA"/>
<path d="M82.5107 65.6835H230.005V149.396H82.5107V65.6835Z" fill="white"/>
<path d="M234.999 153.227V164.455C234.999 164.92 234.907 165.381 234.729 165.811C234.551 166.241 234.29 166.632 233.96 166.961C233.631 167.29 233.24 167.551 232.81 167.73C232.38 167.908 231.919 167.999 231.453 167.999H173.429V190.159H174.2C174.26 190.159 174.32 190.171 174.376 190.194C174.432 190.217 174.483 190.251 174.525 190.294C174.568 190.336 174.602 190.387 174.625 190.443C174.648 190.499 174.66 190.559 174.66 190.619V192.16C174.66 192.221 174.648 192.281 174.625 192.337C174.602 192.393 174.568 192.443 174.525 192.486C174.483 192.529 174.432 192.563 174.376 192.586C174.32 192.609 174.26 192.621 174.2 192.621H138.179C138.118 192.621 138.059 192.609 138.003 192.586C137.947 192.563 137.896 192.529 137.853 192.486C137.81 192.443 137.777 192.393 137.753 192.337C137.73 192.281 137.718 192.221 137.718 192.16V190.619C137.718 190.559 137.73 190.499 137.753 190.443C137.777 190.387 137.81 190.336 137.853 190.294C137.896 190.251 137.947 190.217 138.003 190.194C138.059 190.171 138.118 190.159 138.179 190.159H138.95V167.999H80.9253C80.4597 167.999 79.9986 167.908 79.5685 167.73C79.1383 167.552 78.7475 167.29 78.4182 166.961C78.089 166.632 77.8279 166.241 77.6497 165.811C77.4715 165.381 77.3798 164.92 77.3798 164.455V153.227L234.999 153.227Z" fill="#3F3D56"/>
<path d="M103.853 93.6803H173.701C174.141 93.6803 174.564 93.5055 174.875 93.1942C175.186 92.8829 175.361 92.4607 175.361 92.0205C175.361 91.5803 175.186 91.1581 174.875 90.8469C174.564 90.5356 174.141 90.3607 173.701 90.3607H103.853C103.413 90.3607 102.991 90.5356 102.679 90.8469C102.368 91.1581 102.193 91.5803 102.193 92.0205C102.193 92.4607 102.368 92.8829 102.679 93.1942C102.991 93.5055 103.413 93.6803 103.853 93.6803Z" fill="#E6E6E6"/>
<path d="M127.29 101.173H150.265C150.705 101.173 151.127 100.998 151.439 100.687C151.75 100.376 151.925 99.9534 151.925 99.5132C151.925 99.0729 151.75 98.6507 151.439 98.3394C151.127 98.0281 150.705 97.8533 150.265 97.8533H127.29C126.849 97.8533 126.427 98.0281 126.116 98.3394C125.804 98.6507 125.629 99.0729 125.629 99.5132C125.629 99.9534 125.804 100.376 126.116 100.687C126.427 100.998 126.849 101.173 127.29 101.173Z" fill="#E6E6E6"/>
<path d="M127.29 116.371H150.265C150.705 116.371 151.127 116.197 151.439 115.885C151.75 115.574 151.925 115.152 151.925 114.712C151.925 114.271 151.75 113.849 151.439 113.538C151.127 113.227 150.705 113.052 150.265 113.052H127.29C126.849 113.052 126.427 113.227 126.116 113.538C125.804 113.849 125.629 114.271 125.629 114.712C125.629 115.152 125.804 115.574 126.116 115.885C126.427 116.197 126.849 116.371 127.29 116.371Z" fill="#E6E6E6"/>
<path d="M127.29 124.156H150.264C150.482 124.156 150.698 124.113 150.9 124.029C151.101 123.946 151.284 123.824 151.438 123.67C151.593 123.516 151.715 123.333 151.798 123.131C151.882 122.93 151.925 122.714 151.925 122.496C151.925 122.278 151.882 122.062 151.798 121.861C151.715 121.659 151.593 121.476 151.438 121.322C151.284 121.168 151.101 121.046 150.9 120.963C150.698 120.879 150.482 120.836 150.264 120.836H127.29C127.072 120.836 126.856 120.879 126.654 120.963C126.453 121.046 126.27 121.168 126.116 121.322C125.961 121.476 125.839 121.659 125.756 121.861C125.672 122.062 125.629 122.278 125.629 122.496C125.629 122.714 125.672 122.93 125.756 123.131C125.839 123.333 125.961 123.516 126.116 123.67C126.27 123.824 126.453 123.946 126.654 124.029C126.856 124.113 127.072 124.156 127.29 124.156Z" fill="#E6E6E6"/>
<path d="M114.405 108.666H163.149C163.59 108.666 164.012 108.491 164.323 108.179C164.635 107.868 164.81 107.446 164.81 107.006C164.81 106.566 164.635 106.143 164.323 105.832C164.012 105.521 163.59 105.346 163.149 105.346H114.405C113.964 105.346 113.542 105.521 113.231 105.832C112.919 106.143 112.744 106.566 112.744 107.006C112.744 107.446 112.919 107.868 113.231 108.179C113.542 108.491 113.964 108.666 114.405 108.666Z" fill="#E6E6E6"/>
<path d="M105.016 140.094H113.358C114.107 140.094 114.825 139.797 115.354 139.267C115.884 138.738 116.181 138.02 116.181 137.272C116.181 136.523 115.884 135.805 115.354 135.276C114.825 134.746 114.107 134.449 113.358 134.449H105.016C104.267 134.449 103.549 134.746 103.02 135.276C102.49 135.805 102.193 136.523 102.193 137.272C102.193 138.02 102.49 138.738 103.02 139.267C103.549 139.797 104.267 140.094 105.016 140.094Z" fill="#3EA8FF"/>
<path d="M195.664 119.609C187.645 119.609 181.143 113.109 181.143 105.091C181.143 97.0738 187.645 90.5742 195.664 90.5742C203.684 90.5742 210.186 97.0738 210.186 105.091C210.186 113.109 203.684 119.609 195.664 119.609Z" fill="#3EA8FF"/>
<path d="M25.7392 193.22H234.615C234.716 193.219 234.814 193.179 234.886 193.107C234.957 193.035 234.998 192.937 234.998 192.836C234.998 192.734 234.957 192.636 234.886 192.564C234.814 192.492 234.716 192.452 234.615 192.451H25.7392C25.6375 192.452 25.5401 192.492 25.4682 192.564C25.3964 192.636 25.3561 192.734 25.3561 192.836C25.3561 192.937 25.3964 193.035 25.4682 193.107C25.5401 193.179 25.6375 193.219 25.7392 193.22Z" fill="#CACACA"/>
<path d="M156.326 63.9053C156.024 63.9053 155.779 63.6604 155.779 63.3582C155.779 63.056 156.024 62.811 156.326 62.811C156.628 62.811 156.873 63.056 156.873 63.3582C156.873 63.6604 156.628 63.9053 156.326 63.9053Z" fill="white"/>
</svg>
